<svg width="24" height="24" viewBox="0 0 24 24" fill="none" xmlns="http://www.w3.org/2000/svg">
<path d="M11.29 4.393L12 5.10864L12.7099 4.393C13.3495 3.74831 14.5257 2.76374 15.92 2.28284C17.2575 1.82153 18.7791 1.81859 20.339 3.07655C23.5542 5.66936 24.4767 11.2461 19.5671 16.1952C16.985 18.798 14.9725 20.3144 13.629 21.1726C12.9573 21.6017 12.4524 21.8665 12.1267 22.0205C12.0809 22.0421 12.0387 22.0616 12 22.079C11.9613 22.0616 11.919 22.0421 11.8733 22.0205C11.5476 21.8665 11.0427 21.6017 10.3709 21.1726C9.02742 20.3144 7.01495 18.798 4.43288 16.1952C-0.476721 11.2461 0.445808 5.66936 3.66094 3.07655C5.22084 1.81859 6.74251 1.82153 8.07996 2.28284C9.47422 2.76374 10.6505 3.7483 11.29 4.393Z" stroke-width="2"/>
</svg>
