<svg width="24" height="24" viewBox="0 0 24 24" fill="none" xmlns="http://www.w3.org/2000/svg">
<g clip-path="url(#clip0_105_421)">
<path d="M24 20.5V11.5905C24 10.2529 23.4658 8.96935 22.4943 8.04995C21.3555 6.97221 19.7755 5.51829 18.5 4.5C16.0872 2.5738 14.883 1 12 1C9.11699 1 7.91279 2.5738 5.5 4.5C4.22447 5.51829 2.64451 6.97221 1.50572 8.04995C0.534244 8.96935 0 10.2529 0 11.5905V20.5C0 22.1569 1.34315 23.5 3 23.5H7C8.10457 23.5 9 22.6046 9 21.5V17.1055C9 16.1025 9.5013 15.1658 10.3359 14.6094C11.3436 13.9376 12.6564 13.9376 13.6641 14.6094C14.4987 15.1658 15 16.1025 15 17.1056V21.5C15 22.6046 15.8954 23.5 17 23.5H21C22.6569 23.5 24 22.1569 24 20.5Z"/>
</g>
</svg>
