<svg width="24" height="24" viewBox="0 0 24 24" fill="none" xmlns="http://www.w3.org/2000/svg">
<path d="M23 11.5905V20.5C23 21.0283 22.7996 21.3775 22.4988 21.6168C22.1727 21.8762 21.6591 22.056 21 22.056H16.7032V17.1056V16.0343C16.7032 13.4631 14.6188 11.3787 12.0476 11.3787C9.47639 11.3787 7.39201 13.4631 7.39201 16.0343V17.1056V22.056H3C2.3409 22.056 1.82732 21.8762 1.50124 21.6168C1.20044 21.3775 1 21.0283 1 20.5V11.5905C1 10.5183 1.42788 9.50044 2.19309 8.77626C3.32961 7.70067 4.88363 6.27164 6.1239 5.28151C6.62822 4.87889 7.06644 4.50895 7.46301 4.17417C9.1098 2.78398 10.0385 2 12 2C13.9615 2 14.8902 2.78398 16.537 4.17417C16.9336 4.50895 17.3718 4.87889 17.8761 5.28151C19.1164 6.27164 20.6704 7.70067 21.8069 8.77626C22.5721 9.50044 23 10.5183 23 11.5905Z" stroke="#B8B8B8" stroke-width="2"/>
</svg>
