<svg width="24" height="24" viewBox="0 0 24 24" xmlns="http://www.w3.org/2000/svg">
<path fill-rule="evenodd" clip-rule="evenodd" d="M6.85714 24C8.27743 24 9.42857 22.8681 9.42857 21.4716V17.2627C9.43371 16.6888 9.744 16.0651 10.2094 15.5754C10.6706 15.09 11.2989 14.7293 12 14.7293C12.7054 14.7293 13.3363 15.0875 13.7983 15.5729C14.2629 16.0601 14.5714 16.682 14.5714 17.2568L14.556 21.4624C14.5534 22.1349 14.8234 22.7796 15.3051 23.2558C15.7877 23.732 16.4434 24 17.1274 24C18.408 24 20.1489 24 21.4286 24C22.8489 24 24 22.8681 24 21.4716C24 18.3887 24 11.9497 24 9.65987C24 8.87439 23.6289 8.13443 22.9963 7.65572L13.5677 0.524006C12.6437 -0.174669 11.3563 -0.174669 10.4323 0.524006L1.00372 7.65572C0.371147 8.13443 0 8.87439 0 9.65987V21.4716C0 22.1425 0.270855 22.7855 0.753427 23.2592C1.23514 23.7337 1.88914 24 2.57143 24H6.85714Z"/>
</svg>
