<svg width="24" height="24" viewBox="0 0 24 24" xmlns="http://www.w3.org/2000/svg">
<path fill-rule="evenodd" clip-rule="evenodd" d="M10.9356 11.2964L11.5749 7.89874C11.6146 7.69269 11.7143 7.50314 11.8619 7.35685L18.2861 0.972629C19.6074 -0.33883 21.7287 -0.322346 23.0276 1.01178L23.0337 1.01796C23.6638 1.6639 24.0119 2.53958 23.9997 3.4472C23.9885 4.35584 23.618 5.22122 22.9706 5.85068L16.579 12.0752C16.4416 12.2091 16.2696 12.3008 16.0833 12.341L12.7109 13.0591C12.2223 13.1631 11.7133 13.0127 11.357 12.6583C11.0007 12.3039 10.8419 11.7929 10.9356 11.2964ZM17.8087 4.33524L13.5161 8.60134L13.0875 10.873L15.3779 10.3846L19.6501 6.22567L17.8087 4.33524ZM21.117 4.79677L21.5597 4.36614C21.8142 4.11889 21.9598 3.77789 21.9639 3.42041C21.969 3.06293 21.8315 2.71884 21.5842 2.46437L21.5781 2.45819C21.0671 1.93382 20.2324 1.9266 19.7132 2.44377L19.2613 2.89191L21.117 4.79677Z"/>
<path fill-rule="evenodd" clip-rule="evenodd" d="M12.1365 2.18164C12.7387 2.18164 13.2274 2.67037 13.2274 3.27256C13.2274 3.87475 12.7387 4.36348 12.1365 4.36348H5.45461C4.58624 4.36348 3.75386 4.70822 3.14077 5.3224C2.52658 5.9355 2.18184 6.76788 2.18184 7.63625V18.5455C2.18184 19.4138 2.52658 20.2462 3.14077 20.8593C3.75386 21.4735 4.58624 21.8182 5.45461 21.8182H16.3638C17.2322 21.8182 18.0646 21.4735 18.6777 20.8593C19.2919 20.2462 19.6366 19.4138 19.6366 18.5455V11.8636C19.6366 11.2614 20.1253 10.7726 20.7275 10.7726C21.3297 10.7726 21.8184 11.2614 21.8184 11.8636V18.5455C21.8184 19.992 21.2435 21.3797 20.2213 22.403C19.198 23.4252 17.8104 24.0001 16.3638 24.0001H5.45461C4.00805 24.0001 2.62039 23.4252 1.59711 22.403C0.574917 21.3797 0 19.992 0 18.5455V7.63625C0 6.18969 0.574917 4.80203 1.59711 3.77875C2.62039 2.75656 4.00805 2.18164 5.45461 2.18164H12.1365Z"/>
</svg>
