<svg width="24" height="24" viewBox="0 0 24 24" fill="none" xmlns="http://www.w3.org/2000/svg">
<path d="M4.46647 22.4103H19.4972C20.9332 22.4103 21.9244 20.9722 21.4134 19.6302C20.2021 16.4495 17.1523 14.3474 13.7487 14.3474H10.1657C6.74822 14.3474 3.70253 16.5034 2.56673 19.7266C2.10499 21.0369 3.07717 22.4103 4.46647 22.4103Z" />
<path d="M12.0465 9.72919C14.2942 9.72919 16.1162 7.90713 16.1162 5.65952C16.1162 3.4119 14.2942 1.58984 12.0465 1.58984C9.79892 1.58984 7.97686 3.4119 7.97686 5.65952C7.97686 7.90713 9.79892 9.72919 12.0465 9.72919Z" />
<path d="M4.46647 22.4103H19.4972C20.9332 22.4103 21.9244 20.9722 21.4134 19.6302C20.2021 16.4495 17.1523 14.3474 13.7487 14.3474H10.1657C6.74822 14.3474 3.70253 16.5034 2.56673 19.7266C2.10499 21.0369 3.07717 22.4103 4.46647 22.4103Z" stroke-width="2"/>
<path d="M12.0465 9.72919C14.2942 9.72919 16.1162 7.90713 16.1162 5.65952C16.1162 3.4119 14.2942 1.58984 12.0465 1.58984C9.79892 1.58984 7.97686 3.4119 7.97686 5.65952C7.97686 7.90713 9.79892 9.72919 12.0465 9.72919Z" stroke-width="2"/>
</svg>
