<svg width="24" height="24" viewBox="0 0 24 24" xmlns="http://www.w3.org/2000/svg">
  <path d="M21.4399 23.0323C20.9541 23.6477 20.2288 24 19.45 24H4.55002C3.77122 24 3.04593 23.6469 2.56014 23.0323C2.07009 22.4117 1.89004 21.612 2.06585 20.8363C3.13256 16.1383 7.21764 12.8571 12 12.8571C16.7824 12.8571 20.8674 16.1383 21.9342 20.8363C22.11 21.612 21.9299 22.4117 21.4399 23.0323ZM12 12C15.2783 12 17.945 9.30857 17.945 6C17.945 2.69143 15.2783 0 12 0C8.72174 0 6.05497 2.69143 6.05497 6C6.05497 9.30857 8.72174 12 12 12Z"/>
</svg>
